<?xml version="1.0" encoding="utf-8"?>
<!-- Generator: Adobe Illustrator 21.1.0, SVG Export Plug-In . SVG Version: 6.00 Build 0)  -->
<svg version="1.1" id="Layer_1" xmlns="http://www.w3.org/2000/svg" xmlns:xlink="http://www.w3.org/1999/xlink" x="0px" y="0px"
	 viewBox="0 0 1547 605" style="enable-background:new 0 0 1547 605;" xml:space="preserve">
<style type="text/css">
	.st0{fill:#FE5504;}
</style>
<path class="st0" d="M865.5,123.3l-4,0.8c-2.2,0.5-24.7,4.7-50,9.4s-47,8.7-48.2,9c-1.8,0.4-2.2,1.1-2,4.3c0.2,3.4,0.5,3.8,4.2,4.6
	c12.7,2.8,15,3.8,19.7,8.6c5.7,6,8.4,13.6,10.1,29.5c1.3,12.7,1.6,230.9,0.3,263.1l-0.7,19.1l10.3,2.2c39,8.4,77.9,11.3,102.3,7.6
	c30.4-4.5,52.6-15,71.5-33.5c27-26.7,40-64.5,39-111c-1-23.9-5-39.6-15-59c-13.6-26.3-36.5-44.7-62.7-50.1
	c-19.5-4.1-44.8-0.9-63.9,8.1c-4.8,2.2-9.4,4-10.2,4c-1.3,0-1.4-7.4-1.1-58.3L865.5,123.3L865.5,123.3z M77.9,130l0.3,6.3l0.3,6.2
	l9,1.1c12,1.5,16.4,2.8,21.2,6.3c7.4,5.3,11.9,13.1,14.7,25.4c4.4,19.1,6,62.2,5.3,142.7c-0.8,85.1-1.9,102.8-7.3,120
	c-4.5,14.1-12.8,21.6-26.5,23.9c-3.8,0.6-9.1,1.6-11.9,2.2l-5,1.1V476h179v-5.5c0-3-0.3-5.5-0.6-5.5c-4.8,0-27-4.8-30.6-6.6
	c-12.7-6.4-18.5-21.6-20.8-53.9c-1.6-23-3.2-90.7-2.2-91.7s43.2,0.7,48.2,1.9c13.6,3.3,24.2,16.7,29.4,37.6l2.4,9.2l6.1,0.3l6.1,0.3
	V246h-6.5c-6.1,0-6.5,0.2-6.5,2.3c0,3.8-3.8,15.8-7.4,23.3c-5.6,11.9-13.5,19-23.6,21.3c-2.5,0.6-14.2,1.5-26,2.1
	c-16.6,0.7-21.6,0.7-22.3-0.3c-1.1-1.7,1.5-133.4,2.8-139.5l0.5-2.3l36.8,0.3l36.7,0.3l8.5,3.1c19.8,7.1,34.1,21.5,46,46.6
	c2.6,5.7,6.1,13.9,7.6,18.3s2.8,8.2,2.9,8.3c0.2,0.2,3.5-0.6,7.3-1.8l7.1-2.2l-0.5-32.6c-0.3-18-0.7-39.6-1.1-47.9l-0.5-15.3
	L77.9,130L77.9,130z M748.4,222.2c-1.1,0-2.2,0-3.4,0.1c-24.8,1.4-46.9,17.9-62.7,46.9c-2.7,4.9-5.4,8.8-6.1,8.8
	c-1,0-1.1-5.5-0.6-27.5l0.7-27.6l-2.4,0.6c-1.3,0.3-21.3,4.3-44.4,9c-49.6,9.9-56.5,11.4-57.6,12.1c-0.5,0.3-0.9,2.1-0.9,4
	c0,3.7-0.5,3.5,10.8,5.3c15.5,2.5,20.9,10.1,23.2,32.1c3.1,28.8,1.9,140.9-1.6,156.2c-1.8,7.8-6.4,15.4-11,18c-1.8,1-7.2,2.6-12,3.6
	l-8.9,1.7l-0.3,5.3l-0.3,5.2H718v-10.8l-7.8-0.7c-17.8-1.5-22.7-3.3-27.4-10c-6.8-9.8-8.3-27.9-8.3-101.1v-57.2l2.5-2.7
	c3.1-3.3,12.9-7.9,19.8-9.4c14-2.9,32-0.4,46,6.5c4,2,7.5,3.4,7.7,3.2c0.4-0.4,23.5-61.3,24.2-63.9c0.3-1.1-1-2.2-4.9-3.7
	C762.5,223.3,756.1,222,748.4,222.2L748.4,222.2z M449.5,223c-35.9,0-64.8,11.2-87.1,33.5c-23.8,24-36.4,57.5-36.4,96.7
	c0,40.8,11.4,73.7,33.5,96.7c12.1,12.7,24,20.3,41,26.4c6,2.1,10.4,3.1,26.5,6.1c1.4,0.3,10.6,0.3,20.5,0.1
	c13.4-0.3,20.2-0.9,26.5-2.3c17.7-4.2,31.9-10.5,44.5-19.9c30.8-23,47.6-58.2,49.2-102.8c1.5-43.9-11.7-81.3-37.4-105.5
	C509.6,232.4,483.4,223,449.5,223L449.5,223z M1162,223c-34,0-62,11.3-84,33.9c-18,18-28,38.2-34,66.6c-2,8.6-2,13-2,31
	c0,17.9,0,22.5,2,30.7c11,52.5,46,87,96,95.9c12,2.2,31,2.4,43,0.4c23-3.8,46-14.9,62-30.4c9-8.5,12-12.6,11-14.8
	c-3-5.7-3-5.7-12-0.5c-13,8.3-20,10.6-36,12.3c-18,1.9-36-1.2-51-9.4c-11-5.4-24-17.8-30-29c-8-15.3-13-33.1-14-56
	c-1-9.7-1-12.1,0-12.8c1-0.5,34-0.9,75-0.9h73v-2.9c0-6.6-2-24.2-4-33.5c-8-37.3-28-63.8-58-74.5C1188,224.8,1177,223,1162,223
	L1162,223z M1381,223.6c-22,0-24,0.2-33,2.6c-27,7.3-47,22.3-57,43.2c-5,11.2-7,19.7-7,33.1c0,19,5,33.1,17,45.4
	c9,10.5,22,18,44,26.1c17,6.4,35,15.2,42,20.8c4,3.3,7,7.1,9,11.3c3,6.1,4,6.9,4,16.4c0,9.2-1,10.6-4,16.7c-7,16.1-22,24-42,22.4
	c-27-2.2-46-20.1-62-57.9c-4-9.8-4-10-10-7.7l-3,1.1l1,35.2c0,31.3,0,35.4,2,36.5c4,3.4,33,10.2,53,12.6c16,1.9,39,1.9,51,0.2
	c43-6.5,70-29.3,77-64.1c4-16.8,2-35.5-4-48c-8-17.5-23-28-58-43c-26-11-42-20.4-48-28.9c-6-6.9-7-12.3-7-21.6c0-14,5-24.7,15-31.4
	c9-5.6,19-7,32-4.1c15,3.6,26,12.7,36,29.7c3,5.4,10,20.6,13,30c1,1.4,1,1.5,5,0.5c2-0.7,4-1.5,5-1.9V267l-1-31.2l-4-1.5
	c-6-2.6-22-7-32-8.9C1407,223.9,1400,223.6,1381,223.6z M443.6,240c9.6,0,14.9,2.4,22.4,9.9c17.9,18.1,26.4,52.5,26.3,106.6
	c-0.1,43.2-4.4,70.4-14,88.8c-4.7,8.9-13.4,17.1-20.5,19.2c-27.4,8.1-46.9-17.9-54.5-72.5c-2.5-17.6-2.4-65.6,0-85.8
	C408.7,262.3,422.2,240.1,443.6,240L443.6,240z M1157,240.1c17-0.1,28,23.8,30,67.3v12.4l-17,0.6c-10,0.3-26,0.7-36,0.9l-19,0.3v-4
	c0-2.3,1-8.1,2-13.1C1123,264.2,1138,240.1,1157,240.1z M889.5,253.5c8.5,0,9.6,0.3,16.7,3.8c17.2,8.5,29,29.6,34.5,61.7
	c2,11.9,2.3,44.3,0.4,58.5c-4.5,34.9-15.9,63.1-31.1,76.8c-6,5.4-11.7,8.3-18.9,9.7c-5.3,1-6.9,1-16.4,0.3c-4.1-0.3-5-0.8-5.8-2.9
	c-1.3-3.4-2.8-120.6-2.2-167.4l0.5-36.6l6.7-1.9C878.3,254.2,883.5,253.5,889.5,253.5z"/>
</svg>
