<svg id="Layer_1" data-name="Layer 1" xmlns="http://www.w3.org/2000/svg" viewBox="0 0 142.74 30"><defs><style>.cls-1{fill:#ffb6c4;}</style></defs><title>Lolas_Logo_AW</title><rect class="cls-1" x="112.73" width="3.69" height="1.27"/><rect class="cls-1" x="112.73" y="2.09" width="3.69" height="1.27"/><rect class="cls-1" x="112.73" y="4.18" width="3.69" height="1.27"/><rect class="cls-1" x="112.73" y="6.27" width="3.69" height="1.27"/><path class="cls-1" d="M142.17,4.2l.57-.57a12.35,12.35,0,0,0-3.68-2.54Z"/><path class="cls-1" d="M135.64.11l5.31,5.31.74-.74L137.53.52A12.4,12.4,0,0,0,135.64.11Z"/><path class="cls-1" d="M133.11,0l6.61,6.61.74-.74L134.58,0A12.46,12.46,0,0,0,133.11,0Z"/><path class="cls-1" d="M131,.36l7.5,7.5.74-.74-7-7A12.41,12.41,0,0,0,131,.36Z"/><path class="cls-1" d="M129.16,1l8.11,8.11.74-.74L130.25.57Q129.7.75,129.16,1Z"/><path class="cls-1" d="M127.55,1.8l8.51,8.51.74-.74-8.29-8.29Q128,1.52,127.55,1.8Z"/><path class="cls-1" d="M126.12,2.82l8.72,8.72.74-.74L127,2.18C126.68,2.38,126.39,2.59,126.12,2.82Z"/><path class="cls-1" d="M125.22,3.63l-.36.38,8.75,8.75.74-.74L125.6,3.26Z"/><path class="cls-1" d="M123.78,5.37,132.39,14l.74-.74-8.72-8.72C124.19,4.79,124,5.08,123.78,5.37Z"/><path class="cls-1" d="M122.87,6.91l8.29,8.29.74-.74L123.4,5.95Q123.11,6.42,122.87,6.91Z"/><path class="cls-1" d="M122.17,8.65l7.77,7.77.74-.74-8.11-8.11Q122.34,8.1,122.17,8.65Z"/><path class="cls-1" d="M121.72,10.65l7,7,.74-.74L122,9.4A12.39,12.39,0,0,0,121.72,10.65Z"/><path class="cls-1" d="M121.61,13l5.88,5.88.74-.74-6.61-6.61A12.46,12.46,0,0,0,121.61,13Z"/><path class="cls-1" d="M122.11,15.93l4.16,4.16.74-.74L121.71,14A12.39,12.39,0,0,0,122.11,15.93Z"/><path class="cls-1" d="M125.22,21.14l.57-.57-3.11-3.11A12.35,12.35,0,0,0,125.22,21.14Z"/><path class="cls-1" d="M136.8,9.57,119.34,27q.4.35.83.66L137.45,10.4Q137.15,10,136.8,9.57Z"/><path class="cls-1" d="M137.84,11l-17.1,17.1c.31.2.62.38.94.55l16.7-16.7C138.22,11.59,138,11.28,137.84,11Z"/><path class="cls-1" d="M138.7,12.56,122.33,28.92q.53.24,1.07.42l15.72-15.72Q138.93,13.08,138.7,12.56Z"/><path class="cls-1" d="M139.34,14.36l-15.2,15.2a12.39,12.39,0,0,0,1.22.27l14.25-14.25A12.39,12.39,0,0,0,139.34,14.36Z"/><path class="cls-1" d="M139.72,16.43,126.2,29.95a12.46,12.46,0,0,0,1.44.05l12.13-12.13A12.46,12.46,0,0,0,139.72,16.43Z"/><path class="cls-1" d="M139.71,18.88,128.66,29.94a12.42,12.42,0,0,0,1.81-.32l8.93-8.93A12.42,12.42,0,0,0,139.71,18.88Z"/><path class="cls-1" d="M131.88,29.16a12.38,12.38,0,0,0,7.06-7.06Z"/><rect class="cls-1" width="1.27" height="30"/><rect class="cls-1" x="2.09" width="1.27" height="30"/><rect class="cls-1" x="4.18" width="1.27" height="30"/><rect class="cls-1" x="6.27" width="1.27" height="30"/><rect class="cls-1" x="8.36" width="1.27" height="30"/><rect class="cls-1" x="10.45" width="1.27" height="30"/><polygon class="cls-1" points="13.81 0 12.54 0 12.54 30 20.99 30 20.99 28.73 13.81 28.73 13.81 27.91 20.99 27.91 20.99 26.64 13.81 26.64 13.81 25.82 20.99 25.82 20.99 24.55 13.81 24.55 13.81 23.73 20.99 23.73 20.99 22.46 13.81 22.46 13.81 21.64 20.99 21.64 20.99 20.37 13.81 20.37 13.81 0"/><rect class="cls-1" x="60.21" width="1.27" height="30"/><rect class="cls-1" x="62.3" width="1.27" height="30"/><rect class="cls-1" x="64.39" width="1.27" height="30"/><rect class="cls-1" x="66.48" width="1.27" height="30"/><rect class="cls-1" x="68.57" width="1.27" height="30"/><rect class="cls-1" x="70.66" width="1.27" height="30"/><polygon class="cls-1" points="74.02 0 72.75 0 72.75 30 81.2 30 81.2 28.73 74.02 28.73 74.02 27.91 81.2 27.91 81.2 26.64 74.02 26.64 74.02 25.82 81.2 25.82 81.2 24.55 74.02 24.55 74.02 23.73 81.2 23.73 81.2 22.46 74.02 22.46 74.02 21.64 81.2 21.64 81.2 20.37 74.02 20.37 74.02 0"/><polygon class="cls-1" points="99.5 0 99.16 0.79 99.16 0.79 98.82 1.58 110.96 30 111.64 30 112.31 30 99.5 0"/><polygon class="cls-1" points="97.75 4.08 108.82 30 110.17 30 98.42 2.51 97.75 4.08"/><polygon class="cls-1" points="96.68 6.59 106.68 30 108.03 30 97.35 5.01 96.68 6.59"/><polygon class="cls-1" points="95.61 9.09 104.54 30 105.89 30 96.28 7.52 95.61 9.09"/><polygon class="cls-1" points="94.54 11.6 102.4 30 103.75 30 95.21 10.02 94.54 11.6"/><path class="cls-1" d="M93.61,13.77l-.14.33L86.67,30h1.24l6.17-14.45.4.93L88.71,30h1.35l5.1-11.94.4.93L90.85,30h1.35l4-9.44.4.93L93,30h1.35l3-6.93.4.93-2.56,6h1.35l1.89-4.43.4.93L97.27,30h1.35l.82-1.92.82,1.92h1.35L94.14,12.53Z"/><path class="cls-1" d="M40.45,1V0a15,15,0,0,0-5.32,1Z"/><path class="cls-1" d="M31.36,3.07h9.09V1.8H33.33A15,15,0,0,0,31.36,3.07Z"/><path class="cls-1" d="M29.13,5.16H40.45V3.89H30.37A15.09,15.09,0,0,0,29.13,5.16Z"/><path class="cls-1" d="M27.6,7.26H40.45V6h-12A15,15,0,0,0,27.6,7.26Z"/><path class="cls-1" d="M26.55,9.35h13.9V8.08H27.14Q26.82,8.7,26.55,9.35Z"/><path class="cls-1" d="M25.88,11.45H40.45V10.17H26.25Q26,10.8,25.88,11.45Z"/><path class="cls-1" d="M25.52,13.54H40.45V12.27H25.7C25.62,12.69,25.56,13.11,25.52,13.54Z"/><path class="cls-1" d="M25.45,15c0,.21,0,.43,0,.64h15V14.36h-15C25.46,14.57,25.45,14.79,25.45,15Z"/><path class="cls-1" d="M25.7,17.73H40.45V16.46H25.52C25.56,16.89,25.62,17.31,25.7,17.73Z"/><path class="cls-1" d="M26.25,19.83h14.2V18.55H25.88Q26,19.2,26.25,19.83Z"/><path class="cls-1" d="M27.14,21.92H40.45V20.65H26.55Q26.82,21.3,27.14,21.92Z"/><path class="cls-1" d="M28.46,24h12V22.74H27.6A15,15,0,0,0,28.46,24Z"/><path class="cls-1" d="M30.37,26.11H40.45V24.84H29.13A15.09,15.09,0,0,0,30.37,26.11Z"/><path class="cls-1" d="M33.33,28.2h7.12V26.93H31.36A15,15,0,0,0,33.33,28.2Z"/><path class="cls-1" d="M40.45,30V29H35.13A15,15,0,0,0,40.45,30Z"/><path class="cls-1" d="M41.27,0V30c.43,0,.85-.08,1.27-.15V.2C42.12.13,41.7.08,41.27,0Z"/><path class="cls-1" d="M43.36.36V29.64c.43-.1.86-.21,1.27-.34V.7C44.22.57,43.8.45,43.36.36Z"/><path class="cls-1" d="M45.46,1V29q.65-.25,1.27-.55V1.54Q46.11,1.23,45.46,1Z"/><path class="cls-1" d="M47.55,2V28a15,15,0,0,0,1.27-.82V2.8A15,15,0,0,0,47.55,2Z"/><path class="cls-1" d="M49.65,3.42V26.58a15.09,15.09,0,0,0,1.27-1.19V4.61A15.09,15.09,0,0,0,49.65,3.42Z"/><path class="cls-1" d="M51.74,5.53V24.47A15,15,0,0,0,53,22.64V7.36A15,15,0,0,0,51.74,5.53Z"/><path class="cls-1" d="M53.84,21A15,15,0,0,0,53.84,9Z"/></svg>