<?xml version="1.0" encoding="utf-8"?>
<!-- Generator: Adobe Illustrator 21.1.0, SVG Export Plug-In . SVG Version: 6.00 Build 0)  -->
<svg version="1.1" id="svg2" xmlns:svg="http://www.w3.org/2000/svg"
	 xmlns="http://www.w3.org/2000/svg" xmlns:xlink="http://www.w3.org/1999/xlink" x="0px" y="0px" viewBox="0 0 3634.1 512"
	 style="enable-background:new 0 0 3634.1 512;" xml:space="preserve">
<style type="text/css">
	.st0{fill:#FE5504;}
</style>
<g>
	<path id="path6" class="st0" d="M213.2,0c-3.4,0.2-6.8,1-10,3.1c13.3,2.7,28.8,4.4,37.2,16.5c4.2,4.5,2.9,11.3-1.3,15.2
		c-7.9,9.5-21.6,12.4-33.2,9.4C166.4,34.9,129.1,16.7,88.5,12c-21.7-2.9-43,7.6-58,22.7c-13.8,13.9-18.9,35-16.1,54
		c3.1,15.1,14.2,30.7,30.4,32.9c-9.6-10.4-11.4-28.4-1.5-39.2c5.6-7,15.6-7.9,23.9-6.6c31.5,5.8,62.1,15.3,93.5,21.7
		c17.6,4.8,34.9,10.5,52.9,13.7c0.3,21.5,0.3,42.9,0,64.3c-11.6,8.7-22.6,18-34,26.9c11.1,8.3,22.5,16,33.9,23.8
		c0.7,30.3-0.1,60.7,0.4,91c-18.7,14.5-43.8,16.8-66.6,14.1c-24.2-1.3-45.7-15.8-61.5-33.3c26.6-14.2,53.6-27.5,80.8-40.5
		c1-47.8,0.2-95.7,0.4-143.6c-34,14.2-67.6,29.2-101.4,43.7c9.8-25,29.7-45.3,53.4-57.3c-6.2,0.4-12.7-0.1-18.5,2.6
		c-44.4,17.5-81,55.2-94.8,101.2c-9.2,29.2-6.2,61.2,3.7,89.7c12.4,31.8,35.3,59.9,65.7,76c17.1,8.8,35.4,17.1,55,17.3
		c40.5,3.4,83.1-11.9,110.4-42.4c11.9-12.8,17.9-29.5,23.9-45.6c5.5-15.9,8-32.8,7.4-49.7c-13.1,26-30.5,50.4-54.3,67.7
		c0.2-30.2-0.1-60.5,0.1-90.7c10.3-7.9,20.7-15.8,30.8-24.1c-10.3-9.1-20.5-18.2-30.8-27.3c0-21.3,0-42.6,0-63.8
		c23.1-1.2,49.8-13.4,56-37.7c4.3-15.8,6.6-34.6-3.1-49C261.6,14.3,250,5.5,236.4,3C228.7,2.6,220.7-0.3,213.2,0z M104.9,145.8
		c-0.1,46.1,0.3,92.2-0.2,138.2c-7.7,3-15.3,6.3-22.8,9.7c-14-20.2-22.6-44-26.6-68.1c-1.1-20.4,2.7-41,9.8-60.1
		C78.4,159.2,91.5,152.3,104.9,145.8z"/>
	<path id="path8" class="st0" d="M2759.7,0c-3.7-0.1-7.4,0.6-10.8,3.1c7.8,1.8,16.1,2.6,23.4,6.2c6.5,3.1,10.8,9.6,13.1,16.3
		c1.2,7.2-4.1,13.9-10.4,16.6c-11.4,5.3-24.3,2.8-35.9-0.3c-27.8-8.5-54.9-19.5-83.3-26.2c-14.6-3.1-29.9-6-44.6-2.2
		c-16,4.5-32.2,12.1-41.6,26.4c-12.2,15.7-13.7,37.3-7.8,55.8c4.9,12.3,14.8,24.4,28.8,26c-4.6-5.9-12.4-11.8-10.2-20.2
		c1.3-8.3,4.7-16.7,11.4-22.1c6.7-5,15.8-5,23.5-2.7c28.3,5.3,55.9,13.2,83.9,19.8c19,4,37.2,11.1,56.2,14.6
		c0.3,21.4,0.1,42.7,0.2,64.1c-10.3,9.1-20.5,18.1-30.6,27.3c10.2,7.9,20.2,16,30.6,23.7c0.2,30.4-0.1,60.9,0.2,91.3
		c-18,13.5-41.6,16.8-63.4,13.7c-24.1-1.4-45.1-15.9-61.1-33c6.5-4.6,14-7.5,21.1-11.2c19.9-9.8,39.5-20,59.5-29.5
		c0.6-47.9,0.1-95.8,0.3-143.7c-33.7,14.4-67.2,29.4-101.1,43.5c7.7-18.4,20.1-35.2,36.7-46.4c5-4.5,10-9.3,16.8-10.9
		c-6.8,0.5-13.9,0.2-20.1,3.4c-47.7,19.3-88.4,61.4-97.4,113.1c-3.4,26.3-1,53.5,8.2,78.4c11.8,29.2,32.5,55.2,59.4,71.7
		c12.9,7.8,26.7,14.2,41.2,18.5c34.6,5.8,71.7,0.8,102-17.6c20-13.9,38.5-32,46.9-55.4c9-19.9,12.6-41.6,13-63.3
		c-4.2,5.5-6.6,11.9-10.2,17.8c-11.5,19.3-26.4,36.8-44.5,50.2c0.2-30.3-0.3-60.6,0.3-91c10.3-7.4,19.9-15.7,30.2-23
		c-9.5-9.9-20.3-18.4-30.4-27.6c-0.2-21.3,0.2-42.5-0.2-63.8c19.9-1.3,40-10.2,50.7-27.7c11.1-17.9,11.1-42.4,0.3-60.4
		c-8.5-11.2-21.7-18.4-35.5-20.4C2772.3,2.7,2765.9,0.2,2759.7,0L2759.7,0z M2650.5,145.8c0.3,46,0,92,0.1,138
		c-7.8,3.3-15.6,6.7-23.4,10.1c-11.3-16-20.2-33.9-24.7-53c-5-25-3.7-52.1,7.9-75.1C2623.9,159.2,2637.2,152.5,2650.5,145.8
		L2650.5,145.8z"/>
	<path id="path10" class="st0" d="M1034.1,15.3c13,22.7,4.8,53.4-14.6,69.8c-12,7.8-25.8,12.1-39.3,16.5c0.3,92.8,0,185.6,0.1,278.4
		c1,4.2-2.9,7.6-6.9,5.9c-7.9-0.4-10-8.7-13.3-14.3c-48.6-89.3-96.6-178.9-145.5-268c-0.9,65.5,0,131.1-0.5,196.7
		c23.1,4.4,45.6,15.5,60.8,33.9c7-5.4,11.6-15,20.6-17.2c-2.3,4.2-5.6,7.6-8.8,11c-17.5,19.4-34.9,38.8-52.4,58.2
		c-8.1-10.2-18.9-19.9-32.4-21.3c-8.9-0.3-19.2,0.1-25.6,7.1c-7.5,6.7-12.5,17.9-7.1,27.4c6.2,13.6,21.9,17.3,35.1,20.6
		c-16.5,3.3-35,1.3-48.3-9.7c-10.6-9.1-20.2-20.6-23-34.6c-3.7-19.3,2.1-40.8,16.5-54.6c15.8-15.6,39-21.5,60.7-20.2
		c0.6-28.6,0.3-57.1,0.1-85.7c-10.5-1.7-24.9-0.2-29.8,10.8c-2.8,8.9,3.8,16.5,10.5,21.3c-8.2-1.4-17.3-3-23.3-9.4
		c-7-8.6-12.4-18.8-14.5-29.8c-2-14.1,1.7-30.3,13.5-39.4c12.3-9.5,28.7-10.8,43.8-10.5c0-20.1,0-40.3,0-60.4
		c-5.5-8.2-10.7-17.6-20.1-21.8c-6.1-2.5-14.1-3.5-19.4,1.3c-7.3,6.2-9.1,16-12,24.7c-2.8-21.1-0.7-44.9,14.1-61.5
		c17.8-23.1,55.5-23.9,75-2.6c8.4,8.7,14.2,19.4,20,29.9C904.2,132,939.5,196.7,976,260.7c0.2-53.1,0.3-106.2,0-159.3
		c-6.3-2.4-13.2-2.4-19.6-4.6c-11.9-3.1-21.8-10.8-30.5-19.1c-5.5,6.4-11,12.8-16.1,19.6c-1.2-0.7-3.6-1.9-4.8-2.6
		c18.7-23.6,38.7-46.1,58.2-69c10.2,10.7,23.5,19.5,38.7,20.5C1017.4,44.7,1033,32,1034.1,15.3L1034.1,15.3z"/>
	<path id="path12" class="st0" d="M2247.4,66.7c26.1-17,52.1-34.1,78.3-51c0.2,100.3-0.2,200.6,0.2,300.9c5.7,7.7,13.4,14,20.2,20.8
		c4.3-4.6,8.8-9,13.2-13.5c1,1,3.1,3.1,4.2,4.2c-20.9,18.1-41.1,36.9-62.1,54.8c-13.2-13.6-26.9-26.7-40.1-40.3
		c-5.9,5.2-11.3,11-16.8,16.6c-1.1-0.9-3.4-2.6-4.5-3.5c10-9.6,20.8-18.4,30.9-27.9c-0.1-76,0.1-152-0.1-228
		C2270.5,85.5,2263.3,68.5,2247.4,66.7z"/>
	<path id="path14" class="st0" d="M299.8,69.7c22.5-16.7,44.5-34.1,66.9-50.8c0.1,55.3,0,110.5,0.1,165.8c19-15.7,38.2-31.2,57-47.1
		c15.1,15.7,29.2,32.3,44.8,47.5c6.6-4.7,13.3-9.2,20.2-13.4c-1.2,8.8-11.7,11.8-17.1,17.9c0.1,30.2,0,60.4,0,90.6
		c0.4,22.6-2.8,45-3.5,67.6c-1,24.5-10.5,49.5-29.6,65.6c-15.5,13.9-36.7,18.9-57,20.5c-0.3,0.5-1.1,1.5-1.5,2l0.5-1.8
		c-7,0-13.9-0.3-20.9-0.8c8.7-4.5,18.6-7.4,25.5-14.9c7.9-8.8,17.1-17.2,21-28.8c6.4-17.6,6.6-36.6,7.2-55.1
		c-0.2-41.4,0.2-82.8-0.2-124.2c-9.2-12-20.3-22.6-30-34.2c-5.3,5.7-11.8,10.5-16.3,16.9c-0.4,42.7,0,85.5-0.2,128.2
		c5.5,5.5,11.1,11.1,16.6,16.6c4.5-4.5,9-9,13.4-13.5c1,1,3,2.9,4,3.9c-21.7,17-43.3,34.3-65,51.2c-13.8-12.2-27.2-24.8-40.7-37.2
		c-4.5,3.4-9.1,6.8-13.6,10.2c-1-1-2.9-3.1-3.9-4.1c10.4-6.7,20.7-13.7,31-20.6c0-76,0-151.9,0-227.9c-0.2-5.8,0.1-12.1-3-17.2
		c-2-4-6.6-5.2-10-7.6C294.9,72.3,298.5,71.3,299.8,69.7L299.8,69.7z"/>
	<path id="path16" class="st0" d="M1796.8,29.4c-20.4,16.5-40.4,33.6-60.6,50.4c-0.2-15.8,0.3-31.6-0.3-47.4
		c-3.1-0.2-4.5,1.3-4.1,4.2c-0.1,111.8,0,223.7-0.1,335.5c-11-2.1-22.1-4.3-33-6.8c-0.2-94.3,0-188.6-0.1-283
		c-0.2-11.9-4.1-23.9-12-33c-9.8-11.6-25.1-17-39.8-18c-17.5-0.5-33.5,8.7-45.8,20.5c-11.2,10.7-17.3,27.2-14.1,42.5
		c1.4-9.5,4.5-20.2,13.2-25.5c9.6-4.1,22.4-0.8,28.1,8.2c4.9,7.3,5.4,16.3,5.6,24.8c0,25.5,0,51,0,76.5c-16.8,0.3-36.7,3-46.4,18.6
		c-9.8,12.2-12.8,29.5-6.1,43.9c4.4,14.2,19.2,21.5,32.9,23.8c-7.7-5-15.5-13.7-11-23.5c6.1-9.8,20-11.2,30.3-8.4
		c0.4,45.3,0.2,90.5,0.1,135.7c-15.4,5.4-30.5,14.7-38.7,29.3c-6,10.4-6.2,22.8-5.7,34.4c1.8,20.4,15.3,39,33.4,48.3
		c13.6,6.4,29,6.6,43.8,6.1c41.9-2.5,81.8-19.1,123.8-20.5c12.5-0.9,19.9,12.9,16.6,23.7c-2.5,9.8-10.7,16.4-18.5,22.2
		c14.8-3.1,29.5-8.7,41-18.7c13-11,19-28.8,18.1-45.5c-1-16.5-14.3-28.8-28.1-35.9c-18.2-10.7-40.3-8.3-60.3-6.1
		c-37.7,4.3-74.4,16.3-112.5,17.3c-12.9,0.9-25-8.3-27.5-20.9c-2.9-12.2,7-22.9,17-28.1c21.7-10.2,46.7-6.4,69.3-1.7
		c26.2,2.7,50.8,13.4,77.1,16.1c14.9,1.7,30.7-1.2,43-10.2c12.6-7.8,18.3-22.9,18.6-37.2c0.2-89-0.2-178,0.2-267.1
		c8.1-7.1,17.1-13.4,24.2-21.6c-9.9,2.5-16.1,11.7-24.2,17.4C1828.4,56.6,1812.7,42.9,1796.8,29.4L1796.8,29.4z M1752.4,74.4
		c9.1,7.8,18.1,15.8,27.2,23.7c0,28-0.1,56.1,0,84.1c-4.3,4.3-9.1,8.8-15.4,9.6c-10.3,2.2-20.3-2.9-28.1-9.3c0-32.7,0-65.5,0-98.2
		C1741.6,81,1747,77.7,1752.4,74.4L1752.4,74.4z M1736.1,190.2c13.3,6.8,30.5,8.8,43.5,0.1c0,12.7,0,25.5,0,38.2
		c-5.3-5.1-12-9.2-19.6-9.2c-8.9-0.2-17,4-23.9,9.2C1736.2,215.7,1736.1,203,1736.1,190.2L1736.1,190.2z M1759.9,223.3
		c8.6,0.2,15.2,6.6,19.7,13.4c-0.1,35.5,0,71,0,106.5c0.7,10.9-6.8,20.2-15,26.5c-7.9,6.3-18.6,6.5-28.3,6
		c-0.5-46.4,0-92.8-0.2-139.2C1742.4,229.7,1750.2,223.2,1759.9,223.3z"/>
	<path id="path18" class="st0" d="M2830,87.2c14.1-12.3,27.3-25.6,41.7-37.6c12.2,12.8,25,25.1,37.4,37.7
		c-14.8,13.9-29.8,27.7-44.8,41.3C2852.9,114.8,2841.2,101.2,2830,87.2L2830,87.2z"/>
	<path id="path22" class="st0" d="M1204.4,100.4c8.8-6,19.9-5.7,30.1-7c-7.7,6.1-16.2,13.1-17.2,23.6c-1.7,9.3,4.2,17.8,11.1,23.4
		c12.5,10,28.6,15.6,38.9,28.5c4.9,6.2,7.9,14.1,7.7,22.1c-0.1,42.2,0,84.3-0.1,126.5c11.2,9.1,22.5,18,33.7,27.1
		c3.3-2.1,6.5-4.2,9.8-6.3c-0.2-46,0.2-92-0.2-138c-5.8-6.8-13.7-11.7-20.3-17.7c16.2-14.9,32-30.2,48.5-44.7
		c14.3,14.1,29.4,27.4,44.1,41.1c-5.6,5.9-11.3,11.6-17.2,17.3c-0.1,40.4,0,80.9-0.1,121.3c14.7,11.4,29.4,22.8,44.2,34
		c2.1-1.2,4.2-2.4,6.3-3.6c-0.2-49.4,0-98.8-0.1-148.2c-6.8-5.8-13.8-11.3-20.6-17.3c15.9-15,31.9-29.7,47.9-44.6
		c15.9,12.4,31.8,24.9,47.6,37.4c5.5-6,11.1-12,17.3-17.3c0.8,1.2,2.5,3.5,3.3,4.6c-13.5,12-27,24.2-40.1,36.7
		c-1.1,39.4,0,78.9-0.5,118.3c-34.4,22.6-70.3,43.2-105.2,65.2c-18.4-13.2-36.3-27.1-54.5-40.6c-16.3,13.1-32.6,26.2-49,39.2
		c-2.3,2.6-4.8-1.2-6.7-2.3c-15.3-12.3-30.6-24.8-46.1-36.8c-6.5,5.7-13.4,11-19.9,16.7c-1-1-3.1-3-4.1-4c8-5.5,15.8-11.3,23.8-16.8
		c0-38.2,0-76.4,0-114.5c0-10.2-3.6-20.6-10.6-28.1c-7.7-8.3-18-14.2-24.1-23.9c-6.8-11.3-7.4-25.4-4.8-38.1
		C1181,119.2,1192.3,108.3,1204.4,100.4L1204.4,100.4z"/>
	<path id="path24" class="st0" d="M3623.4,127.7c1.6,4,2.1,8.5,0.1,12.4c-4.8,11-17.9,15.2-29,15c-11.6-1-20.7-9.4-28.6-17.3
		c-13.2,8.8-26.4,17.6-39.6,26.4c-15.2,10.2-31.9,17.8-48.7,24.8c-0.1,21.6,0,43.2-0.1,64.8c12.3,10.2,24.9,20,36.9,30.5
		c-9.2,9.8-18.3,19.7-27.1,29.9c-9,10.8-17.4,23.2-17.9,37.7c-0.5,16.5,6.5,34.3,21.1,43c6.4,3.8,14.3,7.2,21.7,4.2
		c-9.3-3.3-20.7-10.1-19.9-21.4c2.6-10.7,15.3-17.9,25.9-14.8c11,3.1,20,11,27.1,19.8c28.2-20.3,57.9-38.5,88.8-54.5
		c-0.2-27.4,0.4-54.9-0.3-82.3c-13.6-9.6-26.6-20-40.1-29.7c14.3-18.1,28.6-37.2,34.6-59.8C3630.6,146.9,3631.3,134.9,3623.4,127.7
		L3623.4,127.7z M3532.5,168.8c9.2,13.1,21.3,25.9,37.9,28.6c16.5,3.9,32.6-5.1,43.4-17c-14.8,27.5-37.9,49.5-61.7,69.2
		c-6.4-6.8-13.4-13.2-19.7-20.1C3532.7,209.3,3532.5,189,3532.5,168.8L3532.5,168.8z M3555.9,250.7c7.1,6,14.2,12.1,21.3,18.1
		c3.3,2,1.7,6,2.1,9.1c-0.2,23.5,0.3,47.2-0.3,70.7c-5.3-12-13.3-23.2-24.6-30.4c-16.3-10.7-38.8-11.3-55.4-0.9
		c-7.6,4.2-13.7,10.5-19.5,16.9c8.2-16.1,21.6-28.8,34.1-41.5C3528,279,3542.3,265.2,3555.9,250.7z"/>
	<path id="path26" class="st0" d="M620.9,137.8c-18.8,10.9-36.9,22.7-55.3,34.2c-15.6,8.1-31.4,15.8-47.1,23.7
		c0.1,44-0.1,88,0.1,132c-6.7,5.2-14.5,8.9-20.6,14.9c1.2,0.7,3.5,2.1,4.7,2.8c5.3-4.5,10.5-9.2,16.2-13
		c19.5,16.2,37.8,33.7,57.2,49.9c1-0.5,2.9-1.5,3.9-2c32.9-25.5,66.1-50.6,98.9-76l-4.1-3.6c-18.3,14.3-36.1,29.3-54.2,43.7
		c-15-13.5-29.5-27.5-44.4-41c-5.1-3.7-2.2-10.8-2.6-16c30.7-22.5,61.3-44.9,91.6-68C650.1,192.3,635.5,165.1,620.9,137.8z
		 M573.5,170.2c15.5,25.5,31.1,50.9,46.5,76.5c-15.6,11-31.1,22.1-46.5,33.3C573.3,243.4,573.2,206.8,573.5,170.2L573.5,170.2z"/>
	<path id="path28" class="st0" d="M1129.1,137.7c-13.2,8.7-26.6,17.3-40.1,25.5c-19.8,12.4-41.3,21.7-62,32.4c0.1,44-0.1,88,0.1,132
		c-6.4,4.8-13.5,8.5-19.7,13.5c0.7,1.2,2,3.5,2.7,4.6c6.9-4.6,13.7-9.4,20.8-13.7c17.8,17,35.9,33.8,53.8,50.6
		c33.5-24.9,66.4-50.7,99.7-76.1c4.3-0.9,0.8-7.8-2-5.1c-18,14-35.5,28.6-53.2,42.9c-13.9-13.8-27.7-27.7-41.6-41.5
		c-4.5-3.9-1.8-10.5-2.1-15.6c29.5-21.9,58.1-45.1,87.7-66.9C1159.6,192.3,1143.6,165.3,1129.1,137.7z M1085.1,171.1
		c15.2,24.8,29.2,50.4,43.2,75.9c-14.5,10.6-28.5,21.9-42.9,32.7C1084.8,243.5,1085.4,207.3,1085.1,171.1z"/>
	<path id="path30" class="st0" d="M1986.5,137.8c-14.5,8.5-28.8,17.2-42.9,26.3c-16.5,10.1-34.6,17.2-52.2,25.2
		c0.4,46.2,0.1,92.3,0.2,138.5c-5.9,5.9-11.8,11.7-17.6,17.7c1.2-0.1,3.6-0.2,4.8-0.3c4.2-4.5,8.5-8.8,12.8-13.1
		c19.8,16.2,39.2,32.7,58.8,49c3.2,3.1,6.9-1.5,10.1-2.7c31.6-17.3,61.4-37.6,93.9-53.1c0.5-43,0.2-86,0.2-129.1
		c5.9-5.9,11.8-11.7,17.6-17.7c-1.2,0-3.4,0.1-4.6,0.2c-5.5,4.5-11,8.9-16.5,13.3C2029.5,174,2008,155.8,1986.5,137.8L1986.5,137.8z
		 M1949.7,169.7c15.5,14.6,31.3,29,46.8,43.6c-0.2,45.8-0.1,91.6-0.1,137.4c-15.9-14-31-28.8-46.7-42.9L1949.7,169.7L1949.7,169.7z"
		/>
	<path id="path32" class="st0" d="M2328.4,240.4c22.4-34.4,45.3-68.4,68.2-102.4c9.9,8.4,22.3,13.7,35.2,15
		c12.7,0,23.5-7.5,33.1-15.1c-2.4,18.5-8.6,37.8-22.8,50.7c-12.4,11.4-31.2,14.1-46.9,8.6c-9.2-3.1-17.7-8-25.4-14.1
		c-1.3,3.2-2.5,6.5-3.3,9.8c31.8,47.9,63,96.2,94.2,144.4c7.2-4.7,13.5-10.5,19.8-16.2c1.2,0.8,3.7,2.3,4.9,3.1
		c-22.5,20-45.6,39.2-68.6,58.6C2387.2,335.4,2358.3,287.6,2328.4,240.4L2328.4,240.4z"/>
	<path id="path34" class="st0" d="M3403.4,137.8c-13.8,8.4-27.7,16.8-41.4,25.5c-18.9,13.1-40.5,21.3-60.6,32.4c0.2,44,0,88,0.1,132
		c-6.9,4.6-13.7,9.2-20.6,13.7c0.9,1.1,2.7,3.3,3.6,4.4c6-4.4,11.3-9.7,17.8-13.5c17.9,16.7,36.7,32.4,54.9,48.8
		c1.7,2.8,4.3-0.1,6-1.2c32.8-25.3,65.6-50.4,98.5-75.5c-3.8-6.7-8.2-0.2-12.1,2.6c-15.4,12.5-30.8,25.1-46.2,37.5
		c-15.8-14.4-31.1-29.4-47.2-43.4c-0.2-4.5-0.3-9.1-0.1-13.6c30.8-22.3,61.2-45.1,91.7-67.7C3433.1,192.4,3418.3,165,3403.4,137.8
		L3403.4,137.8z M3355.9,171c16.6,24.6,31.2,50.6,46.8,75.9c-15.8,10.8-31.2,22.3-46.9,33.3C3356.1,243.7,3355.9,207.3,3355.9,171
		L3355.9,171z"/>
	<path id="path36" class="st0" d="M2135,141.4c12.4,11.3,22.9,24.7,34.4,36.9c12.6-12,24.8-24.4,37-36.9c8.8,5.7,18,13.6,29.3,11.3
		c8-0.5,12.1-8.4,18.9-11.6c0,16.6-3.8,34.1-14.8,47c-12.6,15.1-36.4,19.5-53.3,9.2c-6.5-3.2-10.8-9.2-16.8-12.9
		c0.2,45.5,0.1,90.9,0,136.4c9,6.9,17.9,13.8,27.1,20.3c6.7-4.4,11.8-12.5,20.3-13.2c-19.9,18.9-40.7,36.9-61.4,54.9
		c-15.6-14.7-31.5-29-46.9-43.8c-6,5.4-11.5,11.3-17.3,16.9c-0.9-1.1-2.7-3.2-3.7-4.2c7.5-8.4,16-16,23.7-24.2
		c-0.3-38.9,0.2-77.8-0.2-116.7c-4.1-9.8-11.3-18.3-16.5-27.7c-7.1,4.2-12.3,12.9-21.1,13.2C2094,177.7,2115,160.1,2135,141.4
		L2135,141.4z"/>
	<path id="path38" class="st0" d="M2941.5,190c18.5-16.2,36.6-32.8,55.2-48.9c13.3,14.7,27.1,29,40.3,43.9
		c19.6-14.2,38.5-29.5,58-43.9c13.6,14.6,27,29.5,40.8,43.9c19.3-14.6,38.3-29.5,57.7-43.9c13.3,14.8,26.9,29.2,40.3,43.8
		c8.2-5.2,15.8-11.5,24.1-16.5c0.6,4.9-3.8,7.1-6.9,9.8c-4.5,3.6-8.8,7.4-13.3,11c-0.4,40.5,0.1,80.9-0.2,121.4
		c7.7,8,15.6,15.9,23.6,23.6c4.2-4.4,8.6-8.7,12.7-13.3c1.2,0.8,3.7,2.3,5,3.1c-20.3,20-41.2,39.3-62,58.7
		c-14.7-17.3-30.1-34.1-44.4-51.7c3.5-3.2,6.9-6.5,10.2-9.9c0-34.9,0-69.8,0-104.7c-11.1-12.4-22.1-24.8-33.6-36.8
		c-3.3,3.4-6.6,6.7-9.9,10.1c0,43.6,0.2,87.3-0.1,130.9c5.5,6.2,11.7,11.7,17.3,17.8c-15,13.3-29.5,27.3-44.4,40.7
		c-14-14.7-27.7-29.6-41.2-44.6c3.8-4.7,11.6-8.2,10.3-15.4c-0.2-34,0.2-68.1-0.2-102.1c-9.3-13-19.7-25.5-30.5-37.3
		c-3.2,3.3-6.3,6.6-9.6,9.9c0.1,42.3-0.2,84.6,0.2,126.8c4.6,7.8,11.4,14.1,17,21.2c-14.6,15.3-29.6,30.2-44.8,44.9
		c-14.5-17.3-29.6-34.1-44.2-51.3c4.6-3.5,9.2-7,13.8-10.6c-0.1-35.7-0.3-71.4,0.1-107.2c-8.6-10.6-18-20.5-27-30.8
		c-6.4,4.7-12,10.7-19.3,14C2936.2,193.6,2939.4,192,2941.5,190z"/>
	<path id="path40" class="st0" d="M2812.9,192.8c19.1-17.5,38.9-34.4,58.3-51.7c13.8,15.6,27.1,31.6,40.8,47.4
		c7.1-5.6,13.5-12.2,21.3-16.8c-0.6,2.5-1.3,5.1-3.6,6.5c-5.9,4.9-11.7,9.8-17.7,14.6c0.1,40.5-0.2,81.1,0.1,121.6
		c7.7,8.7,15.7,17.3,23,26.5c6-3.7,11-8.7,16.8-12.8c1.2,0.7,3.7,1.9,4.9,2.6c-19.1,17.9-38.9,35.1-58.8,52.1
		c-13.2-15.9-26.8-31.6-40.4-47.2c-5.9,5.3-10.8,11.8-17.3,16.5c-0.9-0.8-2.7-2.6-3.7-3.5c5.7-5.4,11.1-11.2,17-16.6
		c0.5-36.8,0-73.7,0.2-110.5c-0.3-5.1,1.3-11.2-2.7-15.3c-7.1-8.8-13.6-18.1-21.1-26.5C2824.4,184.2,2819.1,189.2,2812.9,192.8
		L2812.9,192.8z"/>
</g>
</svg>
